
<svg width="192px" height="111px" viewBox="0 0 192 111" version="1.1" xmlns="http://www.w3.org/2000/svg" xmlns:xlink="http://www.w3.org/1999/xlink">
    <!-- Generator: Sketch 47.1 (45422) - http://www.bohemiancoding.com/sketch -->
    <desc>Created with Sketch.</desc>
    <defs>
        <path d="M61,6.17930201 L54.8887534,0 L2.84217094e-14,55.5 L54.8887534,111 L61,104.820698 L61,104.45138 L12.5877437,55.5 L61,6.54862005 L61,6.17930201 Z" id="path-1"></path>
        <path d="M192,6.05454545 L186,0 L131,55.5 L186,111 L192,104.945455 L192,103.936364 L144,55.5 L192,7.06363636 L192,6.05454545 Z" id="path-2"></path>
    </defs>
    <g id="Page-1" stroke="none" stroke-width="1" fill="none" fill-rule="evenodd">
        <g id="Custom-Preset-2-Copy" transform="translate(-104.000000, -145.000000)">
            <g id="Group-4" transform="translate(104.000000, 145.000000)">
                <g id="Combined-Shape-Copy">
                    <use fill="#CBEAEF" fill-rule="evenodd" xlink:href="#path-1"></use>
                    <path stroke="#979797" stroke-width="1" d="M60.6444944,6.53089231 L54.8887534,0.711054887 L0.703223718,55.5 L54.8887534,110.288945 L60.6444944,104.469108 L61,104.820698 L60.5,104.820698 L60.5,104.45138 L61,104.45138 L60.6444944,104.80297 L11.88452,55.5 L60.6444944,6.19702975 L61,6.54862005 L60.5,6.54862005 L60.5,6.17930201 L61,6.17930201 L60.6444944,6.53089231 Z"></path>
                </g>
                <g id="Combined-Shape-Copy-2" transform="translate(161.500000, 55.500000) scale(-1, 1) translate(-161.500000, -55.500000) ">
                    <use fill="#CBEAEF" fill-rule="evenodd" xlink:href="#path-2"></use>
                    <path stroke="#979797" stroke-width="1" d="M191.5,6.26032817 L186,0.710328175 L131.703929,55.5 L186,110.289672 L191.5,104.739672 L191.5,104.142146 L143.296071,55.5 L191.5,6.85785364 L191.5,6.26032817 Z"></path>
                </g>
                <g id="Group-3" transform="translate(57.000000, 16.000000)" stroke="#979797">
                    <g id="Group-2">
                        <g id="Group">
                            <polygon id="Path" fill="#FFFFFF" points="16 31 39 0 39 62"></polygon>
                            <polygon id="Path" fill="#D4FDED" points="39 79 0 62 78 62"></polygon>
                        </g>
                    </g>
                </g>
            </g>
        </g>
    </g>
</svg>